<svg xmlns="http://www.w3.org/2000/svg" fill="none" viewBox="0 0 128 128">
  <path d="M50.4 78.5a75.1 75.1 0 0 0-28.5 6.9l24.2-65.7c.7-2 1.9-3.2 3.4-3.2h29c1.5 0 2.7 1.2 3.4 3.2l24.2 65.7s-13.5-6.9-28.5-6.9l-11.4-30.5c-.7-2-1.9-3.2-3.4-3.2h-2.1c-1.5 0-2.7 1.2-3.4 3.2L50.4 78.5Zm-1.1 28.2Sc-7.4 0-13.2-6-13.2-13.4a13.53 13.53 0 0 1 13.2-13.4c3.4 0 6.5 1.3 8.8 3.4l-8.2 8.4 7.7 7.9c-2.3 4.7-6.7 7.1-8.3 7.1Zm37.1 0c-1.6 0-6-2.4-8.3-7.1l7.7-7.9-8.2-8.4a13.81 13.81 0 0 1 8.8-3.4c7.3 0 13.2 6 13.2 13.4s-5.9 13.4-13.2 13.4Z" fill="#fff"/>
  <style>
    path { fill: #FF5D01; }
  </style>
</svg>
